<?xml version="1.0" encoding="utf-8"?>
<!-- Generator: Adobe Illustrator 26.0.1, SVG Export Plug-In . SVG Version: 6.00 Build 0)  -->
<svg version="1.1" id="Layer_1" xmlns="http://www.w3.org/2000/svg" xmlns:xlink="http://www.w3.org/1999/xlink" x="0px" y="0px"
	 viewBox="0 0 94 130" style="enable-background:new 0 0 94 130;" xml:space="preserve">
<style type="text/css">
	.st0{fill-rule:evenodd;clip-rule:evenodd;fill:#BC00C1;}
	.st1{fill-rule:evenodd;clip-rule:evenodd;fill:#FEFEFE;}
</style>
<g>
	<image style="overflow:visible;opacity:0.26;enable-background:new    ;" width="94" height="130" xlink:href="83E174A8.png" >
	</image>
	<path class="st0" d="M46,6c22.3,0,40.3,18,40.3,40.3c0,0,0,0,0,0c0,0.7,0,1.4-0.1,2s0.5,11.6-10,33.9
		c-8.9,18.8-24.8,35.4-29.6,40.1l-0.7,0.4l-0.7-0.4c-4.8-4.8-20.7-21.3-29.6-40.2c-10.6-22.3-10-33.9-10-33.9h0.1
		c0-0.7-0.1-1.3-0.1-2C5.7,24,23.7,6,46,6C46,5.9,46,5.9,46,6L46,6z"/>
	<path class="st1" d="M46,22.1c2,0,16.8,22.9,16.8,36.5c0,8.6-7.5,15.6-16.8,15.6s-16.8-7-16.8-15.6C29.2,45.9,44,22.1,46,22.1z
		 M36.3,46.5c0,0-3,9.7-0.5,15.7s6.6,7.7,6.6,7.7s-7.3-2.2-8.9-7.5S36.3,46.5,36.3,46.5C36.3,46.5,36.3,46.5,36.3,46.5z"/>
</g>
</svg>
