<?xml version="1.0" encoding="utf-8"?>
<!-- Generator: Adobe Illustrator 26.0.1, SVG Export Plug-In . SVG Version: 6.00 Build 0)  -->
<svg version="1.1" id="Layer_1" xmlns="http://www.w3.org/2000/svg" xmlns:xlink="http://www.w3.org/1999/xlink" x="0px" y="0px"
	 viewBox="0 0 94 130" style="enable-background:new 0 0 94 130;" xml:space="preserve">
<style type="text/css">
	.st0{fill-rule:evenodd;clip-rule:evenodd;fill:#7E8E67;}
	.st1{fill-rule:evenodd;clip-rule:evenodd;fill:#FEFEFE;}
</style>
<path class="st0" d="M46,6c22.3,0,40.3,18,40.3,40.3l0,0c0,0.7,0,1.4-0.1,2s0.5,11.6-10,33.9c-8.9,18.8-24.8,35.4-29.6,40.1
	l-0.7,0.4l-0.7-0.4c-4.8-4.8-20.7-21.3-29.6-40.2C5,59.8,5.6,48.2,5.6,48.2h0.1c0-0.7-0.1-1.3-0.1-2C5.7,24,23.7,6,46,6
	C46,5.9,46,5.9,46,6L46,6z"/>
<path class="st1" d="M46,22.1c2,0,16.8,22.9,16.8,36.5c0,8.6-7.5,15.6-16.8,15.6s-16.8-7-16.8-15.6C29.2,45.9,44,22.1,46,22.1z
	 M36.3,46.5c0,0-3,9.7-0.5,15.7s6.6,7.7,6.6,7.7s-7.3-2.2-8.9-7.5S36.3,46.5,36.3,46.5L36.3,46.5z"/>
</svg>
